<?xml version="1.0" encoding="UTF-8" standalone="no"?>
<!DOCTYPE svg PUBLIC "-//W3C//DTD SVG 1.1//EN"
 "http://www.w3.org/Graphics/SVG/1.1/DTD/svg11.dtd">
<!-- Generated by graphviz version 12.2.1 (20241206.2353)
 -->
<!-- Pages: 1 -->
<svg width="271pt" height="455pt"
 viewBox="0.00 0.00 271.25 455.00" xmlns="http://www.w3.org/2000/svg" xmlns:xlink="http://www.w3.org/1999/xlink">
<g id="graph0" class="graph" transform="scale(1 1) rotate(0) translate(4 451)">
<polygon fill="white" stroke="none" points="-4,4 -4,-451 267.25,-451 267.25,4 -4,4"/>
<g id="clust1" class="cluster">
<title>cluster_c_0</title>
<polygon fill="none" stroke="black" points="8,-8 8,-340 255.25,-340 255.25,-8 8,-8"/>
<text text-anchor="middle" x="131.62" y="-322.7" font-family="Times New Roman,serif" font-size="14.00">Services</text>
</g>
<g id="clust2" class="cluster">
<title>cluster_c_0_0</title>
<polygon fill="none" stroke="black" points="16,-16 16,-208 247.25,-208 247.25,-16 16,-16"/>
<text text-anchor="middle" x="131.62" y="-190.7" font-family="Times New Roman,serif" font-size="14.00">Core</text>
</g>
<g id="clust3" class="cluster">
<title>cluster_c_0_0_0</title>
<polygon fill="none" stroke="#000000" stroke-dasharray="5,2" points="24,-24 24,-115 239.25,-115 239.25,-24 24,-24"/>
<text text-anchor="middle" x="131.62" y="-97.7" font-family="Times New Roman,serif" font-size="14.00">Database</text>
</g>
<g id="clust4" class="cluster">
<title>cluster_c_0_1</title>
<polygon fill="none" stroke="black" points="24,-216 24,-307 239.25,-307 239.25,-216 24,-216"/>
<text text-anchor="middle" x="131.62" y="-289.7" font-family="Times New Roman,serif" font-size="14.00">API</text>
</g>
<g id="clust5" class="cluster">
<title>cluster_c_1</title>
<polygon fill="none" stroke="black" points="21,-348 21,-439 242.25,-439 242.25,-348 21,-348"/>
<text text-anchor="middle" x="131.62" y="-421.7" font-family="Times New Roman,serif" font-size="14.00">External</text>
</g>
<!-- serviceA -->
<g id="node1" class="node">
<title>serviceA</title>
<polygon fill="lightblue" stroke="black" points="32,-125.5 32,-174.5 231.25,-174.5 231.25,-125.5 32,-125.5"/>
<text text-anchor="middle" x="96.62" y="-144.95" font-family="Times New Roman,serif" font-size="14.00">Service A [serviceA]</text>
<polyline fill="none" stroke="black" points="161.25,-125.5 161.25,-174.5"/>
<text text-anchor="middle" x="196.25" y="-157.2" font-family="Times New Roman,serif" font-size="14.00">Variables:</text>
<polyline fill="none" stroke="black" points="161.25,-150 231.25,-150"/>
<text text-anchor="middle" x="196.25" y="-132.7" font-family="Times New Roman,serif" font-size="14.00">(None)</text>
</g>
<!-- serviceB -->
<g id="node2" class="node">
<title>serviceB</title>
<polygon fill="lightblue" stroke="black" points="32,-32.5 32,-81.5 231.25,-81.5 231.25,-32.5 32,-32.5"/>
<text text-anchor="middle" x="96.62" y="-51.95" font-family="Times New Roman,serif" font-size="14.00">Service B [serviceB]</text>
<polyline fill="none" stroke="black" points="161.25,-32.5 161.25,-81.5"/>
<text text-anchor="middle" x="196.25" y="-64.2" font-family="Times New Roman,serif" font-size="14.00">Variables:</text>
<polyline fill="none" stroke="black" points="161.25,-57 231.25,-57"/>
<text text-anchor="middle" x="196.25" y="-39.7" font-family="Times New Roman,serif" font-size="14.00">(None)</text>
</g>
<!-- serviceC -->
<g id="node3" class="node">
<title>serviceC</title>
<polygon fill="lightblue" stroke="black" points="32,-224.5 32,-273.5 231.25,-273.5 231.25,-224.5 32,-224.5"/>
<text text-anchor="middle" x="96.62" y="-243.95" font-family="Times New Roman,serif" font-size="14.00">Service C [serviceC]</text>
<polyline fill="none" stroke="black" points="161.25,-224.5 161.25,-273.5"/>
<text text-anchor="middle" x="196.25" y="-256.2" font-family="Times New Roman,serif" font-size="14.00">Variables:</text>
<polyline fill="none" stroke="black" points="161.25,-249 231.25,-249"/>
<text text-anchor="middle" x="196.25" y="-231.7" font-family="Times New Roman,serif" font-size="14.00">(None)</text>
</g>
<!-- ext -->
<g id="node4" class="node">
<title>ext</title>
<polygon fill="lightblue" stroke="black" points="29,-356.5 29,-405.5 234.25,-405.5 234.25,-356.5 29,-356.5"/>
<text text-anchor="middle" x="96.62" y="-375.95" font-family="Times New Roman,serif" font-size="14.00">External Service [ext]</text>
<polyline fill="none" stroke="black" points="164.25,-356.5 164.25,-405.5"/>
<text text-anchor="middle" x="199.25" y="-388.2" font-family="Times New Roman,serif" font-size="14.00">Variables:</text>
<polyline fill="none" stroke="black" points="164.25,-381 234.25,-381"/>
<text text-anchor="middle" x="199.25" y="-363.7" font-family="Times New Roman,serif" font-size="14.00">(None)</text>
</g>
</g>
</svg>
