<?xml version="1.0" encoding="UTF-8" standalone="no"?>
<?xml-stylesheet href="file:///C:/%2A%20Inline%20CSS%20to%20style%20nodes%20and%20edges%20in%20the%20SVG%20%2A" type="text/css"?>
<!DOCTYPE svg PUBLIC "-//W3C//DTD SVG 1.1//EN"
 "http://www.w3.org/Graphics/SVG/1.1/DTD/svg11.dtd">
<!-- Generated by graphviz version 12.2.1 (20241206.2353)
 -->
<!-- Pages: 1 -->
<svg width="954pt" height="193pt"
 viewBox="0.00 0.00 953.75 193.00" xmlns="http://www.w3.org/2000/svg" xmlns:xlink="http://www.w3.org/1999/xlink">
<style type="text/css">
/* Inline CSS to style nodes and edges in the SVG */
.entity rect {
  fill: #e6f0ff;
  stroke: #3070f0;
  stroke-width: 1.5px;
}
.highlight path {
  stroke: #ff5722;
  stroke-width: 2px;
}
.note text {
  font-style: italic;
  fill: #666;
}
</style>

<g id="graph0" class="graph" transform="scale(1 1) rotate(0) translate(4 189)">
<polygon fill="white" stroke="none" points="-4,4 -4,-189 949.75,-189 949.75,4 -4,4"/>
<g id="clust1" class="cluster core">
<title>cluster_c_0</title>
<path fill="#eaf2ff" stroke="#4a90e2" d="M20,-12C20,-12 568.5,-12 568.5,-12 574.5,-12 580.5,-18 580.5,-24 580.5,-24 580.5,-165 580.5,-165 580.5,-171 574.5,-177 568.5,-177 568.5,-177 20,-177 20,-177 14,-177 8,-171 8,-165 8,-165 8,-24 8,-24 8,-18 14,-12 20,-12"/>
<text text-anchor="middle" x="294.25" y="-159.7" font-family="Times New Roman,serif" font-size="14.00">Core</text>
</g>
<g id="clust2" class="cluster billing">
<title>cluster_c_1</title>
<polygon fill="none" stroke="#ffa000" stroke-dasharray="5,2" points="665.5,-8 665.5,-165 937.75,-165 937.75,-8 665.5,-8"/>
<text text-anchor="middle" x="801.62" y="-147.7" font-family="Times New Roman,serif" font-size="14.00">Billing</text>
</g>
<!-- cust -->
<g id="node1" class="node entity">
<title>cust</title>
<polygon fill="lightblue" stroke="black" points="16,-42 16,-124 264.75,-124 264.75,-42 16,-42"/>
<text text-anchor="middle" x="72.75" y="-86.2" font-family="Times New Roman,serif" font-size="14.00">Customer [cust]</text>
<text text-anchor="middle" x="72.75" y="-69.7" font-family="Times New Roman,serif" font-size="14.00">A customer entity</text>
<polyline fill="none" stroke="black" points="129.5,-42 129.5,-124"/>
<text text-anchor="middle" x="197.12" y="-106.7" font-family="Times New Roman,serif" font-size="14.00">Variables:</text>
<polyline fill="none" stroke="black" points="129.5,-99.5 264.75,-99.5"/>
<text text-anchor="middle" x="197.12" y="-82.2" font-family="Times New Roman,serif" font-size="14.00">customer_id: int (PK)</text>
<text text-anchor="middle" x="197.12" y="-65.7" font-family="Times New Roman,serif" font-size="14.00">email: string</text>
<text text-anchor="middle" x="197.12" y="-49.2" font-family="Times New Roman,serif" font-size="14.00">name: string</text>
</g>
<!-- order -->
<g id="node2" class="node entity">
<title>order</title>
<polygon fill="lightblue" stroke="black" points="348.5,-24.75 348.5,-123.25 572.5,-123.25 572.5,-24.75 348.5,-24.75"/>
<text text-anchor="middle" x="392.88" y="-68.95" font-family="Times New Roman,serif" font-size="14.00">Order [order]</text>
<polyline fill="none" stroke="black" points="437.25,-24.75 437.25,-123.25"/>
<text text-anchor="middle" x="504.88" y="-105.95" font-family="Times New Roman,serif" font-size="14.00">Variables:</text>
<polyline fill="none" stroke="black" points="437.25,-98.75 572.5,-98.75"/>
<text text-anchor="middle" x="504.88" y="-81.45" font-family="Times New Roman,serif" font-size="14.00">order_id: int (PK)</text>
<text text-anchor="middle" x="504.88" y="-64.95" font-family="Times New Roman,serif" font-size="14.00">customer_id: int (FK)</text>
<text text-anchor="middle" x="504.88" y="-48.45" font-family="Times New Roman,serif" font-size="14.00">total: decimal</text>
<text text-anchor="middle" x="504.88" y="-31.95" font-family="Times New Roman,serif" font-size="14.00">created_at: datetime</text>
</g>
<!-- cust&#45;&gt;order -->
<g id="edge1" class="edge highlight">
<title>cust&#45;&gt;order</title>
<path fill="none" stroke="black" stroke-width="2" d="M265.06,-59.95C284.57,-58.17 304.55,-57.42 323.5,-58.5 327.91,-58.75 332.4,-59.05 336.93,-59.38"/>
<polygon fill="black" stroke="black" stroke-width="2" points="334.99,-62.74 345.24,-60.04 335.55,-55.76 334.99,-62.74"/>
<text text-anchor="middle" x="306.62" y="-61.7" font-family="Times New Roman,serif" font-size="14.00">places</text>
</g>
<!-- cust&#45;&gt;order -->
<g id="edge2" class="edge">
<title>cust&#45;&gt;order</title>
<path fill="none" stroke="black" d="M264.83,-82.32C284.46,-82.02 304.54,-81.59 323.5,-81 327.89,-80.86 332.37,-80.71 336.88,-80.54"/>
<polygon fill="black" stroke="black" points="336.82,-84.05 346.67,-80.16 336.54,-77.05 336.82,-84.05"/>
<text text-anchor="middle" x="306.62" y="-84.98" font-family="Times New Roman,serif" font-size="14.00">by</text>
</g>
<!-- payment -->
<g id="node3" class="node note">
<title>payment</title>
<polygon fill="#fff3cd" stroke="black" points="673.5,-16.5 673.5,-131.5 929.75,-131.5 929.75,-16.5 673.5,-16.5"/>
<text text-anchor="middle" x="735.5" y="-68.95" font-family="Times New Roman,serif" font-size="14.00">Payment [payment]</text>
<polyline fill="none" stroke="black" points="797.5,-16.5 797.5,-131.5"/>
<text text-anchor="middle" x="863.62" y="-114.2" font-family="Times New Roman,serif" font-size="14.00">Variables:</text>
<polyline fill="none" stroke="black" points="797.5,-107 929.75,-107"/>
<text text-anchor="middle" x="863.62" y="-89.7" font-family="Times New Roman,serif" font-size="14.00">payment_id: int (PK)</text>
<text text-anchor="middle" x="863.62" y="-73.2" font-family="Times New Roman,serif" font-size="14.00">order_id: int (FK)</text>
<text text-anchor="middle" x="863.62" y="-56.7" font-family="Times New Roman,serif" font-size="14.00">method: string</text>
<text text-anchor="middle" x="863.62" y="-40.2" font-family="Times New Roman,serif" font-size="14.00">amount: decimal</text>
<text text-anchor="middle" x="863.62" y="-23.7" font-family="Times New Roman,serif" font-size="14.00">status: string</text>
</g>
<!-- order&#45;&gt;payment -->
<g id="edge3" class="edge">
<title>order&#45;&gt;payment</title>
<path fill="none" stroke="black" stroke-dasharray="5,2" d="M572.54,-74C601.06,-74 632.1,-74 661.83,-74"/>
<polygon fill="black" stroke="black" points="661.64,-77.5 671.64,-74 661.64,-70.5 661.64,-77.5"/>
<text text-anchor="middle" x="623" y="-77.2" font-family="Times New Roman,serif" font-size="14.00">paid with</text>
</g>
</g>
</svg>
