<?xml version="1.0" encoding="UTF-8" standalone="no"?>
<!DOCTYPE svg PUBLIC "-//W3C//DTD SVG 1.1//EN"
 "http://www.w3.org/Graphics/SVG/1.1/DTD/svg11.dtd">
<!-- Generated by graphviz version 12.2.1 (20241206.2353)
 -->
<!-- Pages: 1 -->
<svg width="456pt" height="214pt"
 viewBox="0.00 0.00 455.50 214.00" xmlns="http://www.w3.org/2000/svg" xmlns:xlink="http://www.w3.org/1999/xlink">
<g id="graph0" class="graph" transform="scale(1 1) rotate(0) translate(4 210)">
<polygon fill="white" stroke="none" points="-4,4 -4,-210 451.5,-210 451.5,4 -4,4"/>
<g id="clust1" class="cluster">
<title>cluster_c_0</title>
<polygon fill="none" stroke="black" points="260.25,-8 260.25,-192 439.5,-192 439.5,-8 260.25,-8"/>
<text text-anchor="middle" x="349.88" y="-174.7" font-family="Times New Roman,serif" font-size="14.00">Network</text>
</g>
<g id="clust2" class="cluster">
<title>cluster_c_1</title>
<polygon fill="none" stroke="black" points="8,-73 8,-198 181.25,-198 181.25,-73 8,-73"/>
<text text-anchor="middle" x="94.62" y="-180.7" font-family="Times New Roman,serif" font-size="14.00">Compute</text>
</g>
<!-- cli -->
<g id="node1" class="node">
<title>cli</title>
<polygon fill="lightblue" stroke="black" points="277.25,-109.5 277.25,-158.5 422.5,-158.5 422.5,-109.5 277.25,-109.5"/>
<text text-anchor="middle" x="314.88" y="-128.95" font-family="Times New Roman,serif" font-size="14.00">Client [cli]</text>
<polyline fill="none" stroke="black" points="352.5,-109.5 352.5,-158.5"/>
<text text-anchor="middle" x="387.5" y="-141.2" font-family="Times New Roman,serif" font-size="14.00">Variables:</text>
<polyline fill="none" stroke="black" points="352.5,-134 422.5,-134"/>
<text text-anchor="middle" x="387.5" y="-116.7" font-family="Times New Roman,serif" font-size="14.00">(None)</text>
</g>
<!-- svc -->
<g id="node3" class="node">
<title>svc</title>
<polygon fill="lightblue" stroke="black" points="16,-81.5 16,-130.5 173.25,-130.5 173.25,-81.5 16,-81.5"/>
<text text-anchor="middle" x="59.62" y="-100.95" font-family="Times New Roman,serif" font-size="14.00">Service [svc]</text>
<polyline fill="none" stroke="black" points="103.25,-81.5 103.25,-130.5"/>
<text text-anchor="middle" x="138.25" y="-113.2" font-family="Times New Roman,serif" font-size="14.00">Variables:</text>
<polyline fill="none" stroke="black" points="103.25,-106 173.25,-106"/>
<text text-anchor="middle" x="138.25" y="-88.7" font-family="Times New Roman,serif" font-size="14.00">(None)</text>
</g>
<!-- cli&#45;&gt;svc -->
<g id="edge4" class="edge">
<title>cli&#45;&gt;svc</title>
<path fill="none" stroke="black" d="M277.09,-130.81C252.09,-129.28 223.88,-127.09 198.25,-124 193.88,-123.47 189.41,-122.88 184.91,-122.25"/>
<polygon fill="black" stroke="black" points="185.56,-118.81 175.16,-120.81 184.54,-125.73 185.56,-118.81"/>
<text text-anchor="middle" x="220.75" y="-131.32" font-family="Times New Roman,serif" font-size="14.00">callback</text>
</g>
<!-- gw -->
<g id="node2" class="node">
<title>gw</title>
<polygon fill="lightblue" stroke="black" points="268.25,-16.5 268.25,-65.5 431.5,-65.5 431.5,-16.5 268.25,-16.5"/>
<text text-anchor="middle" x="314.88" y="-35.95" font-family="Times New Roman,serif" font-size="14.00">Gateway [gw]</text>
<polyline fill="none" stroke="black" points="361.5,-16.5 361.5,-65.5"/>
<text text-anchor="middle" x="396.5" y="-48.2" font-family="Times New Roman,serif" font-size="14.00">Variables:</text>
<polyline fill="none" stroke="black" points="361.5,-41 431.5,-41"/>
<text text-anchor="middle" x="396.5" y="-23.7" font-family="Times New Roman,serif" font-size="14.00">(None)</text>
</g>
<!-- svc&#45;&gt;cli -->
<g id="edge3" class="edge">
<title>svc&#45;&gt;cli</title>
<path fill="none" stroke="black" d="M173.7,-98.41C196.24,-97.62 220.81,-98.13 243.25,-101.5 250.99,-102.66 258.94,-104.28 266.84,-106.18"/>
<polygon fill="black" stroke="black" points="265.93,-109.56 276.49,-108.65 267.67,-102.78 265.93,-109.56"/>
<text text-anchor="middle" x="220.75" y="-104.7" font-family="Times New Roman,serif" font-size="14.00">callback</text>
</g>
<!-- svc&#45;&gt;gw -->
<g id="edge1" class="edge">
<title>svc&#45;&gt;gw</title>
<path fill="none" stroke="black" stroke-width="2" d="M165.94,-81.08C176.69,-77.64 187.72,-74.32 198.25,-71.5 217.17,-66.43 237.62,-61.75 257.17,-57.67"/>
<polygon fill="black" stroke="black" stroke-width="2" points="265.54,-55.95 256.65,-62.37 263.13,-56.96 255.84,-58.45 255.74,-57.96 255.64,-57.47 262.93,-55.98 254.84,-53.56 265.54,-55.95"/>
<text text-anchor="middle" x="220.75" y="-74.7" font-family="Times New Roman,serif" font-size="14.00">request</text>
</g>
<!-- svc&#45;&gt;svc -->
<g id="edge2" class="edge">
<title>svc&#45;&gt;svc</title>
<path fill="none" stroke="black" stroke-dasharray="5,2" d="M74.73,-130.75C65.95,-151.84 72.58,-174 94.62,-174 112.37,-174 120.13,-159.65 117.9,-143.06"/>
<polygon fill="black" stroke="black" points="117.94,-143.19 112.49,-138.47 114.76,-131.62 120.21,-136.35 117.94,-143.19"/>
<text text-anchor="middle" x="94.62" y="-177.2" font-family="Times New Roman,serif" font-size="14.00">forward</text>
</g>
</g>
</svg>
