<?xml version="1.0" encoding="UTF-8" standalone="no"?>
<?xml-stylesheet href="file:///C:/Users/ejane/OneDrive/Desktop/Grarkdown/.cluster.parent%20%3E%20polygon%20%7B" type="text/css"?>
<!DOCTYPE svg PUBLIC "-//W3C//DTD SVG 1.1//EN"
 "http://www.w3.org/Graphics/SVG/1.1/DTD/svg11.dtd">
<!-- Generated by graphviz version 12.2.1 (20241206.2353)
 -->
<!-- Pages: 1 -->
<svg width="271pt" height="408pt"
 viewBox="0.00 0.00 271.00 408.00" xmlns="http://www.w3.org/2000/svg" xmlns:xlink="http://www.w3.org/1999/xlink">
<style type="text/css">
.cluster.parent > polygon {
  stroke: #FF5722;
  fill: #FFF3E0;
  stroke-width: 2px;
  stroke-dasharray: 8, 4;
}
.cluster.child > polygon {
  stroke: #4CAF50;
  fill: #E8F5E9;
  stroke-width: 1.5px;
}
</style>

<g id="graph0" class="graph" transform="scale(1 1) rotate(0) translate(4 404)">
<polygon fill="white" stroke="none" points="-4,4 -4,-404 267,-404 267,4 -4,4"/>
<g id="clust1" class="cluster parent">
<title>cluster_c_0</title>
<polygon fill="none" stroke="black" points="8,-8 8,-293 255,-293 255,-8 8,-8"/>
<text text-anchor="middle" x="131.5" y="-275.7" font-family="Times New Roman,serif" font-size="14.00">ParentCluster</text>
</g>
<g id="clust2" class="cluster child">
<title>cluster_c_0_0</title>
<polygon fill="none" stroke="black" points="16,-16 16,-200 247,-200 247,-16 16,-16"/>
<text text-anchor="middle" x="131.5" y="-182.7" font-family="Times New Roman,serif" font-size="14.00">ChildCluster</text>
</g>
<g id="clust3" class="cluster">
<title>cluster_c_1</title>
<polygon fill="none" stroke="black" points="15.25,-301 15.25,-392 247.75,-392 247.75,-301 15.25,-301"/>
<text text-anchor="middle" x="131.5" y="-374.7" font-family="Times New Roman,serif" font-size="14.00">OtherCluster</text>
</g>
<!-- compA -->
<g id="node1" class="node">
<title>compA</title>
<polygon fill="lightblue" stroke="black" points="24,-210.5 24,-259.5 239,-259.5 239,-210.5 24,-210.5"/>
<text text-anchor="middle" x="96.5" y="-229.95" font-family="Times New Roman,serif" font-size="14.00">Component A [compA]</text>
<polyline fill="none" stroke="black" points="169,-210.5 169,-259.5"/>
<text text-anchor="middle" x="204" y="-242.2" font-family="Times New Roman,serif" font-size="14.00">Variables:</text>
<polyline fill="none" stroke="black" points="169,-235 239,-235"/>
<text text-anchor="middle" x="204" y="-217.7" font-family="Times New Roman,serif" font-size="14.00">(None)</text>
</g>
<!-- compB -->
<g id="node2" class="node">
<title>compB</title>
<polygon fill="lightblue" stroke="black" points="24,-24.5 24,-73.5 239,-73.5 239,-24.5 24,-24.5"/>
<text text-anchor="middle" x="96.5" y="-43.95" font-family="Times New Roman,serif" font-size="14.00">Component B [compB]</text>
<polyline fill="none" stroke="black" points="169,-24.5 169,-73.5"/>
<text text-anchor="middle" x="204" y="-56.2" font-family="Times New Roman,serif" font-size="14.00">Variables:</text>
<polyline fill="none" stroke="black" points="169,-49 239,-49"/>
<text text-anchor="middle" x="204" y="-31.7" font-family="Times New Roman,serif" font-size="14.00">(None)</text>
</g>
<!-- compC -->
<g id="node3" class="node">
<title>compC</title>
<polygon fill="lightblue" stroke="black" points="24,-117.5 24,-166.5 239,-166.5 239,-117.5 24,-117.5"/>
<text text-anchor="middle" x="96.5" y="-136.95" font-family="Times New Roman,serif" font-size="14.00">Component C [compC]</text>
<polyline fill="none" stroke="black" points="169,-117.5 169,-166.5"/>
<text text-anchor="middle" x="204" y="-149.2" font-family="Times New Roman,serif" font-size="14.00">Variables:</text>
<polyline fill="none" stroke="black" points="169,-142 239,-142"/>
<text text-anchor="middle" x="204" y="-124.7" font-family="Times New Roman,serif" font-size="14.00">(None)</text>
</g>
<!-- compD -->
<g id="node4" class="node">
<title>compD</title>
<polygon fill="lightblue" stroke="black" points="23.25,-309.5 23.25,-358.5 239.75,-358.5 239.75,-309.5 23.25,-309.5"/>
<text text-anchor="middle" x="96.5" y="-328.95" font-family="Times New Roman,serif" font-size="14.00">Component D [compD]</text>
<polyline fill="none" stroke="black" points="169.75,-309.5 169.75,-358.5"/>
<text text-anchor="middle" x="204.75" y="-341.2" font-family="Times New Roman,serif" font-size="14.00">Variables:</text>
<polyline fill="none" stroke="black" points="169.75,-334 239.75,-334"/>
<text text-anchor="middle" x="204.75" y="-316.7" font-family="Times New Roman,serif" font-size="14.00">(None)</text>
</g>
</g>
</svg>
